<svg xmlns="http://www.w3.org/2000/svg" viewBox="0 0 100 100">
  <rect width="100" height="100" fill="#87CEEB" opacity="0.3"/>
  <ellipse cx="45" cy="45" rx="18" ry="20" fill="#8B0000"/>
  <ellipse cx="25" cy="40" rx="8" ry="15" fill="#8B0000"/>
  <path d="M15 35 L5 25 L15 30" stroke="#FFD700" stroke-width="3" fill="none"/>
  <path d="M15 45 L5 55 L15 50" stroke="#FFD700" stroke-width="3" fill="none"/>
  <circle cx="55" cy="40" r="8" fill="#FFD700"/>
  <circle cx="57" cy="38" r="2" fill="#333"/>
  <path d="M45 55 L75 60 L85 50" stroke="#8B0000" stroke-width="8" fill="none"/>
  <path d="M40 65 L30 75 L35 85" stroke="#8B0000" stroke-width="6" fill="none"/>
  <path d="M50 65 L60 75 L55 85" stroke="#8B0000" stroke-width="6" fill="none"/>
  <path d="M25 55 L5 60 L15 70" stroke="#8B0000" stroke-width="4" fill="none"/>
  <ellipse cx="50" cy="65" rx="20" ry="12" fill="#8B0000"/>
  <ellipse cx="35" cy="75" rx="10" ry="6" fill="#8B0000"/>
</svg>