<svg xmlns="http://www.w3.org/2000/svg" viewBox="0 0 100 100">
  <rect width="100" height="100" fill="#87CEEB" opacity="0.3"/>
  <ellipse cx="50" cy="55" rx="22" ry="28" fill="#7CBA7C"/>
  <path d="M28 35 L40 50" stroke="#7CBA7C" stroke-width="10" fill="none"/>
  <path d="M72 35 L60 50" stroke="#7CBA7C" stroke-width="10" fill="none"/>
  <circle cx="40" cy="50" r="6" fill="#333"/>
  <circle cx="60" cy="50" r="6" fill="#333"/>
  <circle cx="41" cy="48" r="2" fill="#fff"/>
  <circle cx="61" cy="48" r="2" fill="#fff"/>
  <path d="M40 62 L60 62" stroke="#333" stroke-width="3" fill="none"/>
  <path d="M35 78 L25 92" stroke="#7CBA7C" stroke-width="8" fill="none"/>
  <path d="M65 78 L75 92" stroke="#7CBA7C" stroke-width="8" fill="none"/>
  <ellipse cx="50" cy="65" rx="15" ry="10" fill="#7CBA7C"/>
  <rect x="15" y="75" width="20" height="10" fill="#8B4513"/>
  <rect x="65" y="75" width="20" height="10" fill="#8B4513"/>
  <path d="M75 55 L95 35 L85 60 Z" fill="#8B4513"/>
  <rect x="70" y="50" width="30" height="6" fill="#8B4513"/>
</svg>